<?xml version="1.0" encoding="UTF-8" standalone="no"?>
<svg
   height="71.036201"
   width="352"
   version="1.1"
   id="svg10"
   xmlns:xlink="http://www.w3.org/1999/xlink"
   xmlns="http://www.w3.org/2000/svg"
   xmlns:svg="http://www.w3.org/2000/svg">
  <defs
     id="SvgjsDefs1001">
    <linearGradient
       id="SvgjsLinearGradient1009">
      <stop
         id="SvgjsStop1010"
         stop-color="#8f5e25"
         offset="0" />
      <stop
         id="SvgjsStop1011"
         stop-color="#fbf4a1"
         offset="0.5" />
      <stop
         id="SvgjsStop1012"
         stop-color="#8f5e25"
         offset="1" />
    </linearGradient>
    <linearGradient
       xlink:href="#SvgjsLinearGradient1009"
       id="linearGradient1063"
       gradientTransform="scale(2.2260323,0.44922978)"
       x1="0.48811219"
       y1="9.6519785"
       x2="34.247833"
       y2="9.6519785"
       gradientUnits="userSpaceOnUse" />
    <linearGradient
       xlink:href="#SvgjsLinearGradient1009"
       id="linearGradient1065"
       gradientTransform="scale(2.2260323,0.44922978)"
       x1="0.48811219"
       y1="9.6519785"
       x2="34.247833"
       y2="9.6519785"
       gradientUnits="userSpaceOnUse" />
  </defs>
  <g
     id="SvgjsG1007"
     featurekey="j5pGhi-0"
     transform="matrix(4.6839513,0,0,4.6839513,-5.0893637,-20.309407)"
     fill="url(#SvgjsLinearGradient1009)"
     style="fill:url(#linearGradient1065)">
    <path
       d="M 1.0867101,15.293 V 13.584 C 1.2038976,12.125667 1.5098872,11.057958 2.0046788,10.380875 2.4148351,9.7623854 2.9519445,9.270849 3.616007,8.9062656 4.0522049,8.6263177 4.6739497,8.4765781 5.4812413,8.4570469 c 0.5208334,0 1.0481771,0.097656 1.5820313,0.2929687 0.5338541,0.1953125 0.9472541,0.4557292 1.2402,0.78125 0.2929458,0.3255209 0.5891691,0.8137874 0.88867,1.4648004 0.1627604,-0.416667 0.5045573,-0.904948 1.0253904,-1.4648441 0.253906,-0.2148438 0.582682,-0.4264323 0.986328,-0.6347656 0.273438,-0.1757813 0.908203,-0.3222657 1.904297,-0.4394532 0.742188,0 1.455078,0.1855469 2.138672,0.5566407 0.683594,0.3710937 1.163727,0.8935604 1.4404,1.5674002 0.276673,0.673839 0.41502,1.678073 0.41504,3.0127 v 5.8496 h -1.4063 v -5.8496 c 0,-1.145834 -0.08138,-1.933594 -0.244141,-2.363281 -0.16276,-0.429688 -0.442707,-0.776355 -0.83984,-1.04 -0.397132,-0.2636463 -0.875632,-0.395483 -1.4355,-0.3955105 -1.054687,0.071615 -1.95638,0.5826825 -2.705078,1.5332035 -0.292968,0.403645 -0.5143226,1.298828 -0.6640622,2.685547 v 5.4297 h -1.377 v -5.4883 c 0,-1.289063 -0.1432291,-2.166342 -0.4296875,-2.631836 -0.2864583,-0.465495 -0.6282583,-0.836595 -1.0254,-1.1133 -0.3971416,-0.2767056 -0.8919416,-0.4150523 -1.4844,-0.4150404 -0.6380208,0 -1.1865234,0.1627604 -1.6455078,0.4882814 -0.4589844,0.325521 -0.8186844,0.812187 -1.0791,1.46 -0.2604156,0.647812 -0.3645823,1.700879 -0.3125,3.1592 v 4.541 h -1.3672 v -4.1504 z m 26.0313469,0.3418 1.1523,0.61523 c -0.371094,0.748698 -0.807292,1.350911 -1.308594,1.806641 -0.501302,0.455729 -1.064469,0.802395 -1.6895,1.04 -0.625031,0.237604 -1.331398,0.35642 -2.1191,0.35645 -1.744791,0 -3.108724,-0.571289 -4.091797,-1.713868 -0.983073,-1.142578 -1.474606,-2.433278 -1.4746,-3.8721 0,-1.360677 0.416667,-2.571614 1.25,-3.632812 1.054688,-1.3541667 2.470703,-2.0312501 4.248047,-2.0312501 1.816406,0 3.271485,0.6933594 4.365235,2.0800781 0.774739,0.976563 1.165364,2.19401 1.171875,3.652344 h -9.6191 c 0.02604,1.25 0.423177,2.273763 1.191406,3.071289 0.768229,0.797526 1.715496,1.196293 2.8418,1.1963 0.546875,0 1.077474,-0.09603 1.591797,-0.288086 0.514323,-0.192057 0.952156,-0.444337 1.3135,-0.75684 0.361343,-0.312503 0.75361,-0.820303 1.1768,-1.5234 z m 0,-2.8809 c -0.182292,-0.735677 -0.449219,-1.323242 -0.800781,-1.762695 -0.351563,-0.439453 -0.817063,-0.794287 -1.3965,-1.0645003 -0.579438,-0.2702136 -1.188171,-0.4053036 -1.8262,-0.40527 -1.048177,0 -1.94987,0.3385417 -2.705078,1.0156253 -0.546875,0.494791 -0.960287,1.233724 -1.240235,2.216797 h 7.9688 z m 6.467856,5.1758 c -0.677084,0.364583 -1.341146,0.39388 -1.992188,0.08789 -0.794271,-0.605468 -1.171875,-1.468098 -1.132812,-2.58789 v -4.5313 h 2.5391 V 9.7168 H 30.451212 V 4.541 h -1.3867 v 11.123 c -0.01302,0.78125 0.166016,1.497396 0.53711,2.148438 0.611979,1.035156 1.445312,1.582031 2.5,1.640625 0.559896,0.01953 1.197917,-0.107422 1.914062,-0.38086 -0.110677,-0.273437 -0.253906,-0.654297 -0.429687,-1.142578 z M 39.382816,8.203 c 1.647135,0 3.014323,0.5957031 4.101562,1.7871094 1.002604,1.0872396 1.503906,2.3795576 1.503906,3.8769526 0.01302,3.697917 0.01302,5.576172 0,5.634766 h -1.4551 v -2.4316 c -0.761718,1.419271 -2.145182,2.213542 -4.15039,2.382813 -1.640625,0 -2.980143,-0.558269 -4.018555,-1.674805 -1.038411,-1.116537 -1.557611,-2.420237 -1.5576,-3.9111 0,-1.484375 0.491537,-2.773438 1.474609,-3.8671876 1.08724,-1.1979166 2.454428,-1.796875 4.101563,-1.796875 z m 0,1.348 c -1.139323,0 -2.119141,0.4231771 -2.939453,1.269531 -0.820313,0.846354 -1.23048,1.868488 -1.2305,3.0664 0,0.77474 0.20996,1.520183 0.629882,2.236328 0.419922,0.716146 1.131189,1.321613 2.1338,1.8164 2.513021,0.559896 4.300131,-0.582682 5.361328,-3.427734 0.05859,-0.911458 -0.03906,-1.783854 -0.292968,-2.617187 C 42.862613,11.517133 42.611962,11.15906 42.292952,10.820519 41.49217,9.9741646 40.522118,9.5509875 39.382795,9.5509875 Z M 45.755888,4.59 h 1.3867 v 8.457 l 4.9512,-4.3164 h 2.0313 l -4.4824,4.0723 4.8242,6.6406 h -1.9531 l -4.2188,-5.7617 -1.1523,0.94727 v 4.8145 h -1.3867 v -14.854 z m 13.296849,3.613 c 1.647136,0 3.014323,0.5957031 4.101563,1.7871094 0.983073,1.0937496 1.474609,2.3860676 1.474609,3.8769526 0,1.490886 -0.520833,2.794586 -1.5625,3.911101 -1.041666,1.116514 -2.379566,1.674781 -4.0137,1.6748 -1.640625,0 -2.980143,-0.558269 -4.018554,-1.674805 -1.038412,-1.116537 -1.557612,-2.420237 -1.5576,-3.9111 0,-1.484375 0.491536,-2.773438 1.474609,-3.8671877 1.08724,-1.1979167 2.454427,-1.796875 4.101563,-1.796875 z m 0,1.348 c -1.139322,0 -2.11914,0.4231771 -2.939453,1.269531 -0.820312,0.846354 -1.230479,1.868488 -1.2305,3.0664 0,0.77474 0.187175,1.499024 0.561524,2.172852 0.374349,0.673828 0.880549,1.191395 1.5186,1.5527 0.638051,0.361305 1.334651,0.541968 2.0898,0.54199 0.768229,0 1.469726,-0.180664 2.104492,-0.541992 0.634766,-0.361328 1.137699,-0.878895 1.5088,-1.5527 0.371101,-0.673806 0.556648,-1.398106 0.55664,-2.1729 0,-1.197917 -0.410156,-2.220052 -1.230469,-3.066407 -0.820312,-0.8463538 -1.800146,-1.2695205 -2.9395,-1.2694996 z m 16.129357,7.8123 c 0.585937,-0.976563 0.9375,-1.936849 1.054687,-2.880859 V 4.3359562 h -1.3672 V 10.312556 C 74.290154,9.6029208 73.642368,9.0739495 72.926222,8.7256422 c -0.716146,-0.3483073 -1.500646,-0.5224606 -2.3535,-0.52246 -1.510417,0 -2.802734,0.5501302 -3.876953,1.6503906 -1.074219,1.1002602 -1.611319,2.4348942 -1.6113,4.0039002 0,1.542969 0.540364,2.861328 1.621094,3.955078 1.080729,1.09375 2.382829,1.640617 3.9063,1.6406 0.872395,0 1.69108,-0.167643 2.456054,-0.50293 0.764974,-0.335286 1.469741,-0.864253 2.1143,-1.5869 z m -4.4536,0.7715 c -0.77474,0 -1.486003,-0.19043 -2.133789,-0.571289 -0.647787,-0.380859 -1.163753,-0.909826 -1.5479,-1.5869 -0.384147,-0.677074 -0.576204,-1.399741 -0.57617,-2.168 0,-0.755208 0.193685,-1.479492 0.581054,-2.172852 0.38737,-0.693359 0.908203,-1.230459 1.5625,-1.6113 0.654297,-0.3808403 1.352531,-0.5712703 2.0947,-0.5712896 0.755209,0 1.471355,0.1904297 2.148438,0.5712886 0.677083,0.38086 1.197917,0.898426 1.5625,1.5527 0.364583,0.654274 0.546877,1.385074 0.54688,2.1924 0,1.24349 -0.410156,2.281901 -1.230469,3.115235 -0.820312,0.833333 -1.822912,1.25 -3.0078,1.25 z"
       id="path7"
       style="fill:url(#linearGradient1063)" />
  </g>
</svg>
